<svg width="127" height="19" viewBox="0 0 127 19" fill="none" xmlns="http://www.w3.org/2000/svg">
<path d="M5.21555 15V3.46H0.555547V0.899999H12.9755V3.46H8.31555V15H5.21555ZM14.1123 3.28V0.459999H17.3723V3.28H14.1123ZM14.2323 15V5.18H17.2523V15H14.2323ZM24.3638 15.22C23.2972 15.22 22.3638 15.0133 21.5638 14.6C20.7772 14.1733 20.1705 13.5733 19.7438 12.8C19.3172 12.0267 19.1038 11.1133 19.1038 10.06C19.1038 9.00667 19.3172 8.1 19.7438 7.34C20.1705 6.58 20.7772 6 21.5638 5.6C22.3638 5.18667 23.2972 4.98 24.3638 4.98C25.0038 4.98 25.6372 5.07333 26.2638 5.26C26.9038 5.44667 27.4238 5.71333 27.8238 6.06L26.9838 8.14C26.6638 7.87333 26.2905 7.66667 25.8638 7.52C25.4372 7.36 25.0372 7.28 24.6638 7.28C23.8772 7.28 23.2638 7.52667 22.8238 8.02C22.3972 8.5 22.1838 9.18667 22.1838 10.08C22.1838 10.96 22.3972 11.6533 22.8238 12.16C23.2638 12.6533 23.8772 12.9 24.6638 12.9C25.0372 12.9 25.4372 12.8267 25.8638 12.68C26.2905 12.5333 26.6638 12.32 26.9838 12.04L27.8238 14.12C27.4238 14.4533 26.9038 14.72 26.2638 14.92C25.6238 15.12 24.9905 15.22 24.3638 15.22ZM29.1346 15V0.899999H32.1546V9.24H32.1946L35.8146 5.18H39.3946L34.7346 10.44V9.3L39.5946 15H35.9546L32.1946 10.76H32.1546V15H29.1346ZM45.2307 15.22C44.0707 15.22 43.0707 15.0133 42.2307 14.6C41.404 14.1733 40.764 13.58 40.3107 12.82C39.8707 12.0467 39.6507 11.14 39.6507 10.1C39.6507 9.08667 39.864 8.2 40.2907 7.44C40.7174 6.66667 41.3107 6.06667 42.0707 5.64C42.844 5.2 43.7174 4.98 44.6907 4.98C45.6507 4.98 46.4774 5.18667 47.1707 5.6C47.864 6 48.3974 6.57333 48.7707 7.32C49.1574 8.06667 49.3507 8.95333 49.3507 9.98V10.74H42.1307V9.18H47.1707L46.8507 9.46C46.8507 8.64667 46.6707 8.03333 46.3107 7.62C45.964 7.19333 45.464 6.98 44.8107 6.98C44.3174 6.98 43.8974 7.09333 43.5507 7.32C43.204 7.54667 42.9374 7.87333 42.7507 8.3C42.564 8.72667 42.4707 9.24 42.4707 9.84V10C42.4707 10.68 42.5707 11.24 42.7707 11.68C42.984 12.1067 43.2974 12.4267 43.7107 12.64C44.1374 12.8533 44.664 12.96 45.2907 12.96C45.824 12.96 46.364 12.88 46.9107 12.72C47.4574 12.56 47.9507 12.3133 48.3907 11.98L49.1907 14C48.6974 14.3733 48.0907 14.6733 47.3707 14.9C46.664 15.1133 45.9507 15.22 45.2307 15.22ZM55.8687 15.22C54.4687 15.22 53.4287 14.88 52.7487 14.2C52.0687 13.52 51.7287 12.52 51.7287 11.2V7.44H49.8687V5.18H51.7287V2.3H54.7487V5.18H57.6487V7.44H54.7487V11.08C54.7487 11.64 54.8753 12.06 55.1287 12.34C55.3953 12.62 55.8153 12.76 56.3887 12.76C56.562 12.76 56.742 12.74 56.9287 12.7C57.1287 12.66 57.342 12.6067 57.5687 12.54L58.0087 14.74C57.7287 14.8867 57.3953 15 57.0087 15.08C56.622 15.1733 56.242 15.22 55.8687 15.22Z" fill="#4880FF"/>
<path d="M64.4346 15.22C63.7013 15.22 62.9879 15.1533 62.2946 15.02C61.6146 14.9 60.9813 14.7267 60.3946 14.5C59.8079 14.26 59.2946 13.98 58.8546 13.66L59.7546 11.22C60.1813 11.5133 60.6413 11.7667 61.1346 11.98C61.6279 12.1933 62.1546 12.36 62.7146 12.48C63.2746 12.5867 63.8479 12.64 64.4346 12.64C65.4079 12.64 66.1013 12.4933 66.5146 12.2C66.9279 11.8933 67.1346 11.5133 67.1346 11.06C67.1346 10.8067 67.0679 10.5867 66.9346 10.4C66.8146 10.2133 66.6079 10.0533 66.3146 9.92C66.0346 9.77333 65.6479 9.65333 65.1546 9.56L62.8946 9.08C61.6146 8.81333 60.6613 8.36 60.0346 7.72C59.4213 7.06667 59.1146 6.21333 59.1146 5.16C59.1146 4.25333 59.3546 3.46667 59.8346 2.8C60.3279 2.13333 61.0013 1.61333 61.8546 1.24C62.7213 0.866666 63.7146 0.68 64.8346 0.68C65.4879 0.68 66.1146 0.746666 66.7146 0.879999C67.3146 0.999999 67.8679 1.18 68.3746 1.42C68.8813 1.66 69.3213 1.94667 69.6946 2.28L68.7946 4.56C68.2613 4.13333 67.6613 3.81333 66.9946 3.6C66.3279 3.37333 65.6013 3.26 64.8146 3.26C64.2546 3.26 63.7746 3.33333 63.3746 3.48C62.9879 3.62667 62.6879 3.83333 62.4746 4.1C62.2746 4.36667 62.1746 4.67333 62.1746 5.02C62.1746 5.40667 62.3146 5.72 62.5946 5.96C62.8746 6.2 63.3613 6.39333 64.0546 6.54L66.3146 7.02C67.6213 7.3 68.5946 7.75333 69.2346 8.38C69.8746 8.99333 70.1946 9.80667 70.1946 10.82C70.1946 11.7 69.9546 12.4733 69.4746 13.14C69.0079 13.7933 68.3413 14.3067 67.4746 14.68C66.6213 15.04 65.6079 15.22 64.4346 15.22ZM72.5313 18.6L74.6913 13.86V15.1L70.3713 5.18H73.5513L76.3313 12.22H75.6913L78.5513 5.18H81.5513L75.6113 18.6H72.5313ZM86.0001 15.22C85.4267 15.22 84.8734 15.1733 84.3401 15.08C83.8067 14.9867 83.3201 14.86 82.8801 14.7C82.4401 14.54 82.0534 14.34 81.7201 14.1L82.4401 12.14C82.7734 12.34 83.1334 12.52 83.5201 12.68C83.9201 12.8267 84.3334 12.94 84.7601 13.02C85.1867 13.1 85.6067 13.14 86.0201 13.14C86.5934 13.14 87.0067 13.0533 87.2601 12.88C87.5267 12.6933 87.6601 12.4533 87.6601 12.16C87.6601 11.8933 87.5734 11.6933 87.4001 11.56C87.2267 11.4267 86.9734 11.3333 86.6401 11.28L84.5401 10.9C83.7134 10.7533 83.0734 10.4533 82.6201 10C82.1801 9.53333 81.9601 8.94 81.9601 8.22C81.9601 7.55333 82.1467 6.98 82.5201 6.5C82.8934 6.00667 83.4067 5.63333 84.0601 5.38C84.7267 5.11333 85.4801 4.98 86.3201 4.98C86.8001 4.98 87.2667 5.02 87.7201 5.1C88.1734 5.18 88.6001 5.3 89.0001 5.46C89.4134 5.62 89.7801 5.83333 90.1001 6.1L89.3401 8.04C89.0867 7.84 88.7867 7.66667 88.4401 7.52C88.0934 7.37333 87.7401 7.26 87.3801 7.18C87.0201 7.08667 86.6801 7.04 86.3601 7.04C85.7601 7.04 85.3267 7.14 85.0601 7.34C84.7934 7.52667 84.6601 7.76667 84.6601 8.06C84.6601 8.28667 84.7334 8.48 84.8801 8.64C85.0401 8.78667 85.2801 8.88667 85.6001 8.94L87.7001 9.32C88.5667 9.46667 89.2267 9.76 89.6801 10.2C90.1334 10.6267 90.3601 11.2133 90.3601 11.96C90.3601 12.64 90.1801 13.2267 89.8201 13.72C89.4601 14.2 88.9534 14.5733 88.3001 14.84C87.6467 15.0933 86.8801 15.22 86.0001 15.22ZM96.8062 15.22C95.4062 15.22 94.3662 14.88 93.6862 14.2C93.0062 13.52 92.6662 12.52 92.6662 11.2V7.44H90.8062V5.18H92.6662V2.3H95.6862V5.18H98.5862V7.44H95.6862V11.08C95.6862 11.64 95.8128 12.06 96.0662 12.34C96.3328 12.62 96.7528 12.76 97.3262 12.76C97.4995 12.76 97.6795 12.74 97.8662 12.7C98.0662 12.66 98.2795 12.6067 98.5062 12.54L98.9462 14.74C98.6662 14.8867 98.3328 15 97.9462 15.08C97.5595 15.1733 97.1795 15.22 96.8062 15.22ZM105.074 15.22C103.914 15.22 102.914 15.0133 102.074 14.6C101.248 14.1733 100.608 13.58 100.154 12.82C99.7145 12.0467 99.4945 11.14 99.4945 10.1C99.4945 9.08667 99.7078 8.2 100.134 7.44C100.561 6.66667 101.154 6.06667 101.914 5.64C102.688 5.2 103.561 4.98 104.534 4.98C105.494 4.98 106.321 5.18667 107.014 5.6C107.708 6 108.241 6.57333 108.614 7.32C109.001 8.06667 109.194 8.95333 109.194 9.98V10.74H101.974V9.18H107.014L106.694 9.46C106.694 8.64667 106.514 8.03333 106.154 7.62C105.808 7.19333 105.308 6.98 104.654 6.98C104.161 6.98 103.741 7.09333 103.394 7.32C103.048 7.54667 102.781 7.87333 102.594 8.3C102.408 8.72667 102.314 9.24 102.314 9.84V10C102.314 10.68 102.414 11.24 102.614 11.68C102.828 12.1067 103.141 12.4267 103.554 12.64C103.981 12.8533 104.508 12.96 105.134 12.96C105.668 12.96 106.208 12.88 106.754 12.72C107.301 12.56 107.794 12.3133 108.234 11.98L109.034 14C108.541 14.3733 107.934 14.6733 107.214 14.9C106.508 15.1133 105.794 15.22 105.074 15.22ZM110.991 15V5.18H113.951V7.02H113.731C113.904 6.60667 114.144 6.24667 114.451 5.94C114.758 5.63333 115.124 5.4 115.551 5.24C115.978 5.06667 116.444 4.98 116.951 4.98C117.711 4.98 118.344 5.16 118.851 5.52C119.358 5.88 119.718 6.43333 119.931 7.18H119.651C119.944 6.5 120.391 5.96667 120.991 5.58C121.604 5.18 122.304 4.98 123.091 4.98C123.851 4.98 124.471 5.13333 124.951 5.44C125.444 5.73333 125.811 6.18667 126.051 6.8C126.291 7.4 126.411 8.16667 126.411 9.1V15H123.391V9.2C123.391 8.54667 123.284 8.07333 123.071 7.78C122.871 7.47333 122.524 7.32 122.031 7.32C121.658 7.32 121.331 7.41333 121.051 7.6C120.771 7.77333 120.558 8.03333 120.411 8.38C120.278 8.71333 120.211 9.12667 120.211 9.62V15H117.191V9.2C117.191 8.54667 117.084 8.07333 116.871 7.78C116.671 7.47333 116.324 7.32 115.831 7.32C115.444 7.32 115.118 7.41333 114.851 7.6C114.584 7.77333 114.378 8.03333 114.231 8.38C114.084 8.71333 114.011 9.12667 114.011 9.62V15H110.991Z" fill="#202224"/>
</svg>
